<svg width="30" height="30" viewBox="0 0 30 30" fill="none" xmlns="http://www.w3.org/2000/svg">
<path d="M19.4749 15.0003C19.4749 17.4753 17.4749 19.4753 14.9999 19.4753C12.5249 19.4753 10.5249 17.4753 10.5249 15.0003C10.5249 12.5253 12.5249 10.5253 14.9999 10.5253C17.4749 10.5253 19.4749 12.5253 19.4749 15.0003Z" stroke="white" stroke-width="3" stroke-linecap="round" stroke-linejoin="round"/>
<path d="M15 25.3371C19.4125 25.3371 23.525 22.7371 26.3875 18.2371C27.5125 16.4746 27.5125 13.5121 26.3875 11.7496C23.525 7.2496 19.4125 4.6496 15 4.6496C10.5875 4.6496 6.47502 7.2496 3.61252 11.7496C2.48752 13.5121 2.48752 16.4746 3.61252 18.2371C6.47502 22.7371 10.5875 25.3371 15 25.3371Z" stroke="white" stroke-width="3" stroke-linecap="round" stroke-linejoin="round"/>
</svg>
