<svg width="30" height="30" viewBox="0 0 30 30" fill="none" xmlns="http://www.w3.org/2000/svg">
<path d="M11.6378 18.3749L13.5128 20.2499L18.5128 15.2499" stroke="white" stroke-width="3" stroke-linecap="round" stroke-linejoin="round"/>
<path d="M12.4999 7.49973H17.4999C19.9999 7.49973 19.9999 6.24973 19.9999 4.99973C19.9999 2.49973 18.7499 2.49973 17.4999 2.49973H12.4999C11.2499 2.49973 9.99992 2.49973 9.99992 4.99973C9.99992 7.49973 11.2499 7.49973 12.4999 7.49973Z" stroke="white" stroke-width="3" stroke-miterlimit="10" stroke-linecap="round" stroke-linejoin="round"/>
<path d="M20 5.02441C24.1625 5.24941 26.25 6.78691 26.25 12.4994V19.9994C26.25 24.9994 25 27.4994 18.75 27.4994H11.25C5 27.4994 3.75 24.9994 3.75 19.9994V12.4994C3.75 6.79941 5.8375 5.24941 10 5.02441" stroke="white" stroke-width="3" stroke-miterlimit="10" stroke-linecap="round" stroke-linejoin="round"/>
</svg>
