<svg width="30" height="30" viewBox="0 0 30 30" fill="none" xmlns="http://www.w3.org/2000/svg">
<path d="M9.35001 22.9381L13.225 25.9381C13.725 26.4381 14.85 26.6881 15.6 26.6881H20.35C21.85 26.6881 23.475 25.5631 23.85 24.0631L26.85 14.9381C27.475 13.1881 26.35 11.6881 24.475 11.6881H19.475C18.725 11.6881 18.1 11.0631 18.225 10.1881L18.85 6.18807C19.1 5.06307 18.35 3.81307 17.225 3.43807C16.225 3.06307 14.975 3.56307 14.475 4.31307L9.35001 11.9381" stroke="white" stroke-width="3" stroke-miterlimit="10"/>
<path d="M2.97493 22.9384V10.6884C2.97493 8.93842 3.72493 8.31342 5.47493 8.31342H6.72493C8.47493 8.31342 9.22493 8.93842 9.22493 10.6884V22.9384C9.22493 24.6884 8.47493 25.3134 6.72493 25.3134H5.47493C3.72493 25.3134 2.97493 24.6884 2.97493 22.9384Z" stroke="white" stroke-width="3" stroke-linecap="round" stroke-linejoin="round"/>
</svg>
